<mxfile host="app.diagrams.net" modified="2023-06-04T16:39:12.929Z" agent="Mozilla/5.0 (Windows NT 10.0; Win64; x64) AppleWebKit/537.36 (KHTML, like Gecko) Chrome/116.0.0.0 Safari/537.36" etag="ZDiD4LSSYzERDNOVtEJs" version="21.3.7" type="device">
  <diagram name="Page-1" id="s-6MiiPb1xlyC971TiUP">
    <mxGraphModel dx="2257" dy="1986" grid="1" gridSize="5" guides="1" tooltips="1" connect="1" arrows="1" fold="1" page="1" pageScale="1" pageWidth="827" pageHeight="1169" math="0" shadow="0">
      <root>
        <mxCell id="0" />
        <mxCell id="1" parent="0" />
        <mxCell id="b1N7xc0EuZElvWoHNFy8-45" style="edgeStyle=orthogonalEdgeStyle;rounded=0;orthogonalLoop=1;jettySize=auto;html=1;exitX=1;exitY=0.25;exitDx=0;exitDy=0;entryX=0;entryY=0.6;entryDx=0;entryDy=0;entryPerimeter=0;fontFamily=Helvetica;fontSize=12;fontColor=default;endArrow=none;endFill=0;" parent="1" source="b1N7xc0EuZElvWoHNFy8-2" target="b1N7xc0EuZElvWoHNFy8-5" edge="1">
          <mxGeometry relative="1" as="geometry" />
        </mxCell>
        <mxCell id="b1N7xc0EuZElvWoHNFy8-2" value="Instruction&lt;br&gt;Memory" style="rounded=0;whiteSpace=wrap;html=1;" parent="1" vertex="1">
          <mxGeometry x="120" y="240" width="120" height="160" as="geometry" />
        </mxCell>
        <mxCell id="b1N7xc0EuZElvWoHNFy8-50" style="edgeStyle=orthogonalEdgeStyle;shape=connector;rounded=0;orthogonalLoop=1;jettySize=auto;html=1;exitX=0;exitY=0.18;exitDx=0;exitDy=0;exitPerimeter=0;labelBackgroundColor=default;strokeColor=default;fontFamily=Helvetica;fontSize=12;fontColor=default;endArrow=none;endFill=0;" parent="1" source="b1N7xc0EuZElvWoHNFy8-3" edge="1">
          <mxGeometry relative="1" as="geometry">
            <mxPoint x="300" y="269" as="targetPoint" />
          </mxGeometry>
        </mxCell>
        <mxCell id="b1N7xc0EuZElvWoHNFy8-51" style="edgeStyle=orthogonalEdgeStyle;shape=connector;rounded=0;orthogonalLoop=1;jettySize=auto;html=1;exitX=0;exitY=0.64;exitDx=0;exitDy=0;exitPerimeter=0;labelBackgroundColor=default;strokeColor=default;fontFamily=Helvetica;fontSize=12;fontColor=default;endArrow=none;endFill=0;" parent="1" source="b1N7xc0EuZElvWoHNFy8-3" edge="1">
          <mxGeometry relative="1" as="geometry">
            <mxPoint x="300" y="342.5" as="targetPoint" />
          </mxGeometry>
        </mxCell>
        <mxCell id="b1N7xc0EuZElvWoHNFy8-52" style="edgeStyle=orthogonalEdgeStyle;shape=connector;rounded=0;orthogonalLoop=1;jettySize=auto;html=1;exitX=0;exitY=0.75;exitDx=0;exitDy=0;exitPerimeter=0;labelBackgroundColor=default;strokeColor=default;fontFamily=Helvetica;fontSize=12;fontColor=default;endArrow=none;endFill=0;" parent="1" source="b1N7xc0EuZElvWoHNFy8-3" edge="1">
          <mxGeometry relative="1" as="geometry">
            <mxPoint x="300" y="360" as="targetPoint" />
          </mxGeometry>
        </mxCell>
        <mxCell id="b1N7xc0EuZElvWoHNFy8-54" style="edgeStyle=orthogonalEdgeStyle;shape=connector;rounded=0;orthogonalLoop=1;jettySize=auto;html=1;exitX=0;exitY=0.87;exitDx=0;exitDy=0;exitPerimeter=0;labelBackgroundColor=default;strokeColor=default;fontFamily=Helvetica;fontSize=12;fontColor=default;endArrow=none;endFill=0;" parent="1" source="b1N7xc0EuZElvWoHNFy8-3" edge="1">
          <mxGeometry relative="1" as="geometry">
            <mxPoint x="280" y="640" as="targetPoint" />
          </mxGeometry>
        </mxCell>
        <mxCell id="b1N7xc0EuZElvWoHNFy8-84" style="edgeStyle=orthogonalEdgeStyle;shape=connector;rounded=0;orthogonalLoop=1;jettySize=auto;html=1;exitX=1;exitY=0.25;exitDx=0;exitDy=0;exitPerimeter=0;entryX=0;entryY=0.2;entryDx=0;entryDy=0;entryPerimeter=0;labelBackgroundColor=default;strokeColor=default;fontFamily=Helvetica;fontSize=12;fontColor=default;endArrow=none;endFill=0;" parent="1" source="b1N7xc0EuZElvWoHNFy8-3" target="b1N7xc0EuZElvWoHNFy8-81" edge="1">
          <mxGeometry relative="1" as="geometry">
            <Array as="points">
              <mxPoint x="520" y="262" />
            </Array>
          </mxGeometry>
        </mxCell>
        <mxCell id="b1N7xc0EuZElvWoHNFy8-86" style="edgeStyle=orthogonalEdgeStyle;shape=connector;rounded=0;orthogonalLoop=1;jettySize=auto;html=1;exitX=1;exitY=0.6;exitDx=0;exitDy=0;exitPerimeter=0;entryX=0.25;entryY=1;entryDx=0;entryDy=0;entryPerimeter=0;labelBackgroundColor=default;strokeColor=default;fontFamily=Helvetica;fontSize=12;fontColor=default;endArrow=none;endFill=0;" parent="1" source="b1N7xc0EuZElvWoHNFy8-3" target="b1N7xc0EuZElvWoHNFy8-9" edge="1">
          <mxGeometry relative="1" as="geometry" />
        </mxCell>
        <mxCell id="b1N7xc0EuZElvWoHNFy8-99" style="edgeStyle=orthogonalEdgeStyle;shape=connector;rounded=0;orthogonalLoop=1;jettySize=auto;html=1;exitX=0.14;exitY=0;exitDx=0;exitDy=0;exitPerimeter=0;labelBackgroundColor=default;strokeColor=default;fontFamily=Helvetica;fontSize=12;fontColor=default;endArrow=none;endFill=0;" parent="1" source="b1N7xc0EuZElvWoHNFy8-3" edge="1">
          <mxGeometry relative="1" as="geometry">
            <mxPoint x="382" y="220" as="targetPoint" />
          </mxGeometry>
        </mxCell>
        <mxCell id="b1N7xc0EuZElvWoHNFy8-3" value="Register&lt;br&gt;File" style="rounded=0;whiteSpace=wrap;html=1;points=[[0,0.18,0,0,0],[0,0.64,0,0,0],[0,0.75,0,0,0],[0,0.87,0,0,0],[0.14,0,0,0,0],[0.55,0,0,0,0],[1,0.25,0,0,0],[1,0.6,0,0,0]];" parent="1" vertex="1">
          <mxGeometry x="360" y="240" width="160" height="160" as="geometry" />
        </mxCell>
        <mxCell id="b1N7xc0EuZElvWoHNFy8-66" style="edgeStyle=orthogonalEdgeStyle;shape=connector;rounded=0;orthogonalLoop=1;jettySize=auto;html=1;exitX=1;exitY=0.4;exitDx=0;exitDy=0;exitPerimeter=0;entryX=0.5;entryY=1;entryDx=0;entryDy=0;entryPerimeter=0;labelBackgroundColor=default;strokeColor=default;fontFamily=Helvetica;fontSize=12;fontColor=default;endArrow=none;endFill=0;" parent="1" source="b1N7xc0EuZElvWoHNFy8-4" target="b1N7xc0EuZElvWoHNFy8-10" edge="1">
          <mxGeometry relative="1" as="geometry" />
        </mxCell>
        <mxCell id="b1N7xc0EuZElvWoHNFy8-67" style="edgeStyle=orthogonalEdgeStyle;shape=connector;rounded=0;orthogonalLoop=1;jettySize=auto;html=1;exitX=0;exitY=0.4;exitDx=0;exitDy=0;exitPerimeter=0;entryX=0.25;entryY=1;entryDx=0;entryDy=0;entryPerimeter=0;labelBackgroundColor=default;strokeColor=default;fontFamily=Helvetica;fontSize=12;fontColor=default;endArrow=none;endFill=0;" parent="1" source="b1N7xc0EuZElvWoHNFy8-4" target="b1N7xc0EuZElvWoHNFy8-10" edge="1">
          <mxGeometry relative="1" as="geometry">
            <Array as="points">
              <mxPoint x="900" y="304" />
              <mxPoint x="900" y="180" />
              <mxPoint x="1110" y="180" />
              <mxPoint x="1110" y="290" />
            </Array>
          </mxGeometry>
        </mxCell>
        <mxCell id="b1N7xc0EuZElvWoHNFy8-88" style="edgeStyle=orthogonalEdgeStyle;shape=connector;rounded=0;orthogonalLoop=1;jettySize=auto;html=1;exitX=0;exitY=0.9;exitDx=0;exitDy=0;exitPerimeter=0;labelBackgroundColor=default;strokeColor=default;fontFamily=Helvetica;fontSize=12;fontColor=default;endArrow=none;endFill=0;" parent="1" source="b1N7xc0EuZElvWoHNFy8-4" edge="1">
          <mxGeometry relative="1" as="geometry">
            <mxPoint x="600" y="340" as="targetPoint" />
            <Array as="points">
              <mxPoint x="600" y="384" />
              <mxPoint x="600" y="335" />
            </Array>
          </mxGeometry>
        </mxCell>
        <mxCell id="b1N7xc0EuZElvWoHNFy8-91" style="edgeStyle=orthogonalEdgeStyle;shape=connector;rounded=0;orthogonalLoop=1;jettySize=auto;html=1;exitX=0.25;exitY=0;exitDx=0;exitDy=0;exitPerimeter=0;labelBackgroundColor=default;strokeColor=default;fontFamily=Helvetica;fontSize=12;fontColor=default;endArrow=none;endFill=0;" parent="1" source="b1N7xc0EuZElvWoHNFy8-4" edge="1">
          <mxGeometry relative="1" as="geometry">
            <mxPoint x="950" y="220" as="targetPoint" />
          </mxGeometry>
        </mxCell>
        <mxCell id="b1N7xc0EuZElvWoHNFy8-4" value="Data&lt;br&gt;Memory" style="rounded=0;whiteSpace=wrap;html=1;points=[[0,0.4,0,0,0],[0,0.9,0,0,0],[0.25,0,0,0,0],[0.75,0,0,0,0],[1,0.4,0,0,0]];" parent="1" vertex="1">
          <mxGeometry x="920" y="240" width="120" height="160" as="geometry" />
        </mxCell>
        <mxCell id="b1N7xc0EuZElvWoHNFy8-46" style="edgeStyle=orthogonalEdgeStyle;shape=connector;rounded=0;orthogonalLoop=1;jettySize=auto;html=1;exitX=0;exitY=0.7;exitDx=0;exitDy=0;exitPerimeter=0;labelBackgroundColor=default;strokeColor=default;fontFamily=Helvetica;fontSize=12;fontColor=default;endArrow=none;endFill=0;" parent="1" source="b1N7xc0EuZElvWoHNFy8-5" edge="1">
          <mxGeometry relative="1" as="geometry">
            <mxPoint x="300.0000000000002" y="60.17391304347848" as="targetPoint" />
          </mxGeometry>
        </mxCell>
        <mxCell id="b1N7xc0EuZElvWoHNFy8-48" style="edgeStyle=orthogonalEdgeStyle;shape=connector;rounded=0;orthogonalLoop=1;jettySize=auto;html=1;exitX=0;exitY=0.8;exitDx=0;exitDy=0;exitPerimeter=0;labelBackgroundColor=default;strokeColor=default;fontFamily=Helvetica;fontSize=12;fontColor=default;endArrow=none;endFill=0;" parent="1" source="b1N7xc0EuZElvWoHNFy8-5" edge="1">
          <mxGeometry relative="1" as="geometry">
            <mxPoint x="300.0000000000002" y="80.17391304347848" as="targetPoint" />
          </mxGeometry>
        </mxCell>
        <mxCell id="b1N7xc0EuZElvWoHNFy8-89" style="edgeStyle=orthogonalEdgeStyle;shape=connector;rounded=0;orthogonalLoop=1;jettySize=auto;html=1;exitX=1;exitY=0.3;exitDx=0;exitDy=0;exitPerimeter=0;labelBackgroundColor=default;strokeColor=#004CFF;fontFamily=Helvetica;fontSize=12;fontColor=default;endArrow=none;endFill=0;" parent="1" source="b1N7xc0EuZElvWoHNFy8-5" target="b1N7xc0EuZElvWoHNFy8-7" edge="1">
          <mxGeometry relative="1" as="geometry">
            <mxPoint x="-30" y="210" as="targetPoint" />
            <Array as="points">
              <mxPoint x="480" y="-20" />
              <mxPoint x="480" y="-110" />
              <mxPoint x="-55" y="-110" />
            </Array>
          </mxGeometry>
        </mxCell>
        <mxCell id="b1N7xc0EuZElvWoHNFy8-90" style="edgeStyle=orthogonalEdgeStyle;shape=connector;rounded=0;orthogonalLoop=1;jettySize=auto;html=1;exitX=1;exitY=0.4;exitDx=0;exitDy=0;exitPerimeter=0;labelBackgroundColor=default;strokeColor=#004CFF;fontFamily=Helvetica;fontSize=12;fontColor=default;endArrow=none;endFill=0;entryX=0.097;entryY=0.518;entryDx=0;entryDy=0;entryPerimeter=0;" parent="1" source="b1N7xc0EuZElvWoHNFy8-5" target="b1N7xc0EuZElvWoHNFy8-10" edge="1">
          <mxGeometry relative="1" as="geometry">
            <mxPoint x="1190" y="240" as="targetPoint" />
          </mxGeometry>
        </mxCell>
        <mxCell id="b1N7xc0EuZElvWoHNFy8-92" style="edgeStyle=orthogonalEdgeStyle;shape=connector;rounded=0;orthogonalLoop=1;jettySize=auto;html=1;exitX=1;exitY=0.5;exitDx=0;exitDy=0;exitPerimeter=0;entryX=0.75;entryY=0;entryDx=0;entryDy=0;entryPerimeter=0;labelBackgroundColor=default;strokeColor=#004CFF;fontFamily=Helvetica;fontSize=12;fontColor=default;endArrow=none;endFill=0;" parent="1" source="b1N7xc0EuZElvWoHNFy8-5" target="b1N7xc0EuZElvWoHNFy8-4" edge="1">
          <mxGeometry relative="1" as="geometry" />
        </mxCell>
        <mxCell id="b1N7xc0EuZElvWoHNFy8-93" style="edgeStyle=orthogonalEdgeStyle;shape=connector;rounded=0;orthogonalLoop=1;jettySize=auto;html=1;exitX=1;exitY=0.6;exitDx=0;exitDy=0;exitPerimeter=0;labelBackgroundColor=default;strokeColor=#004CFF;fontFamily=Helvetica;fontSize=12;fontColor=default;endArrow=none;endFill=0;entryX=0.53;entryY=0.15;entryDx=0;entryDy=0;entryPerimeter=0;" parent="1" source="b1N7xc0EuZElvWoHNFy8-5" target="b1N7xc0EuZElvWoHNFy8-81" edge="1">
          <mxGeometry relative="1" as="geometry" />
        </mxCell>
        <mxCell id="b1N7xc0EuZElvWoHNFy8-94" style="edgeStyle=orthogonalEdgeStyle;shape=connector;rounded=0;orthogonalLoop=1;jettySize=auto;html=1;exitX=1;exitY=0.7;exitDx=0;exitDy=0;exitPerimeter=0;entryX=0.129;entryY=0.504;entryDx=0;entryDy=0;entryPerimeter=0;labelBackgroundColor=default;strokeColor=#004CFF;fontFamily=Helvetica;fontSize=12;fontColor=default;endArrow=none;endFill=0;" parent="1" source="b1N7xc0EuZElvWoHNFy8-5" target="b1N7xc0EuZElvWoHNFy8-9" edge="1">
          <mxGeometry relative="1" as="geometry" />
        </mxCell>
        <mxCell id="b1N7xc0EuZElvWoHNFy8-95" style="edgeStyle=orthogonalEdgeStyle;shape=connector;rounded=0;orthogonalLoop=1;jettySize=auto;html=1;exitX=1;exitY=0.8;exitDx=0;exitDy=0;exitPerimeter=0;entryX=0.5;entryY=0.32;entryDx=0;entryDy=0;entryPerimeter=0;labelBackgroundColor=default;strokeColor=#004CFF;fontFamily=Helvetica;fontSize=12;fontColor=default;endArrow=none;endFill=0;" parent="1" source="b1N7xc0EuZElvWoHNFy8-5" target="b1N7xc0EuZElvWoHNFy8-12" edge="1">
          <mxGeometry relative="1" as="geometry">
            <Array as="points">
              <mxPoint x="560" y="80" />
              <mxPoint x="560" y="480" />
              <mxPoint x="440" y="480" />
            </Array>
          </mxGeometry>
        </mxCell>
        <mxCell id="b1N7xc0EuZElvWoHNFy8-97" style="edgeStyle=orthogonalEdgeStyle;shape=connector;rounded=0;orthogonalLoop=1;jettySize=auto;html=1;exitX=1;exitY=0.9;exitDx=0;exitDy=0;exitPerimeter=0;entryX=0.55;entryY=0;entryDx=0;entryDy=0;entryPerimeter=0;labelBackgroundColor=default;strokeColor=#004CFF;fontFamily=Helvetica;fontSize=12;fontColor=default;endArrow=none;endFill=0;" parent="1" source="b1N7xc0EuZElvWoHNFy8-5" target="b1N7xc0EuZElvWoHNFy8-3" edge="1">
          <mxGeometry relative="1" as="geometry">
            <Array as="points">
              <mxPoint x="448" y="100" />
            </Array>
          </mxGeometry>
        </mxCell>
        <mxCell id="b1N7xc0EuZElvWoHNFy8-98" style="edgeStyle=orthogonalEdgeStyle;shape=connector;rounded=0;orthogonalLoop=1;jettySize=auto;html=1;exitX=0;exitY=0.9;exitDx=0;exitDy=0;exitPerimeter=0;entryX=1;entryY=0.33;entryDx=0;entryDy=0;entryPerimeter=0;labelBackgroundColor=default;strokeColor=default;fontFamily=Helvetica;fontSize=12;fontColor=default;endArrow=none;endFill=0;strokeWidth=2;" parent="1" source="b1N7xc0EuZElvWoHNFy8-5" target="b1N7xc0EuZElvWoHNFy8-81" edge="1">
          <mxGeometry relative="1" as="geometry">
            <Array as="points">
              <mxPoint x="340" y="100" />
              <mxPoint x="340" y="200" />
              <mxPoint x="820" y="200" />
              <mxPoint x="820" y="281" />
            </Array>
          </mxGeometry>
        </mxCell>
        <mxCell id="b1N7xc0EuZElvWoHNFy8-5" value="&lt;font color=&quot;#004cff&quot;&gt;Control&lt;br&gt;Unit&lt;br&gt;&lt;br&gt;&lt;br&gt;&lt;br&gt;&lt;br&gt;&lt;br&gt;&lt;br&gt;&lt;br&gt;&lt;/font&gt;" style="rounded=1;whiteSpace=wrap;html=1;strokeColor=#004cff;points=[[0,0.6,0,0,0],[0,0.7,0,0,0],[0,0.8,0,0,0],[0,0.9,0,0,0],[1,0.3,0,0,0],[1,0.4,0,0,0],[1,0.5,0,0,0],[1,0.6,0,0,0],[1,0.7,0,0,0],[1,0.8,0,0,0],[1,0.9,0,0,0]];" parent="1" vertex="1">
          <mxGeometry x="360" y="-80" width="80" height="200" as="geometry" />
        </mxCell>
        <mxCell id="b1N7xc0EuZElvWoHNFy8-38" style="edgeStyle=orthogonalEdgeStyle;rounded=0;orthogonalLoop=1;jettySize=auto;html=1;exitX=0.5;exitY=0;exitDx=0;exitDy=0;entryX=0;entryY=0.5;entryDx=0;entryDy=0;endArrow=none;endFill=0;" parent="1" source="b1N7xc0EuZElvWoHNFy8-7" target="b1N7xc0EuZElvWoHNFy8-8" edge="1">
          <mxGeometry relative="1" as="geometry" />
        </mxCell>
        <mxCell id="b1N7xc0EuZElvWoHNFy8-75" style="edgeStyle=orthogonalEdgeStyle;shape=connector;rounded=0;orthogonalLoop=1;jettySize=auto;html=1;exitX=0.25;exitY=1;exitDx=0;exitDy=0;exitPerimeter=0;entryX=1;entryY=0.5;entryDx=0;entryDy=0;entryPerimeter=0;labelBackgroundColor=default;strokeColor=default;fontFamily=Helvetica;fontSize=12;fontColor=default;endArrow=none;endFill=0;" parent="1" source="b1N7xc0EuZElvWoHNFy8-7" target="b1N7xc0EuZElvWoHNFy8-71" edge="1">
          <mxGeometry relative="1" as="geometry">
            <Array as="points">
              <mxPoint x="-80" y="263" />
              <mxPoint x="-80" y="680" />
              <mxPoint x="220" y="680" />
              <mxPoint x="220" y="599" />
            </Array>
          </mxGeometry>
        </mxCell>
        <mxCell id="b1N7xc0EuZElvWoHNFy8-76" style="edgeStyle=orthogonalEdgeStyle;shape=connector;rounded=0;orthogonalLoop=1;jettySize=auto;html=1;exitX=0.75;exitY=1;exitDx=0;exitDy=0;exitPerimeter=0;labelBackgroundColor=default;strokeColor=default;fontFamily=Helvetica;fontSize=12;fontColor=default;endArrow=none;endFill=0;entryX=1;entryY=0.5;entryDx=0;entryDy=0;entryPerimeter=0;" parent="1" source="b1N7xc0EuZElvWoHNFy8-7" target="b1N7xc0EuZElvWoHNFy8-77" edge="1">
          <mxGeometry relative="1" as="geometry">
            <mxPoint x="1170" y="1133.4909889914773" as="targetPoint" />
            <Array as="points">
              <mxPoint x="-120" y="297" />
              <mxPoint x="-120" y="720" />
              <mxPoint x="803" y="720" />
              <mxPoint x="803" y="491" />
            </Array>
          </mxGeometry>
        </mxCell>
        <mxCell id="b1N7xc0EuZElvWoHNFy8-7" value="" style="shape=trapezoid;perimeter=trapezoidPerimeter;whiteSpace=wrap;html=1;fixedSize=1;rotation=90;size=10.25;points=[[0.25,1,0,0,0],[0.5,0,0,0,-15],[0.5,0,0,0,0],[0.75,1,0,0,0]];" parent="1" vertex="1">
          <mxGeometry x="-90" y="265.25" width="70" height="29.5" as="geometry" />
        </mxCell>
        <mxCell id="b1N7xc0EuZElvWoHNFy8-40" style="edgeStyle=orthogonalEdgeStyle;rounded=0;orthogonalLoop=1;jettySize=auto;html=1;exitX=1;exitY=0.5;exitDx=0;exitDy=0;entryX=0;entryY=0.25;entryDx=0;entryDy=0;endArrow=none;endFill=0;" parent="1" source="b1N7xc0EuZElvWoHNFy8-8" target="b1N7xc0EuZElvWoHNFy8-2" edge="1">
          <mxGeometry relative="1" as="geometry" />
        </mxCell>
        <mxCell id="b1N7xc0EuZElvWoHNFy8-103" style="edgeStyle=orthogonalEdgeStyle;shape=connector;rounded=0;orthogonalLoop=1;jettySize=auto;html=1;exitX=0.5;exitY=0;exitDx=0;exitDy=0;labelBackgroundColor=default;strokeColor=default;fontFamily=Helvetica;fontSize=12;fontColor=default;endArrow=none;endFill=0;" parent="1" source="b1N7xc0EuZElvWoHNFy8-8" edge="1">
          <mxGeometry relative="1" as="geometry">
            <mxPoint x="25" y="230" as="targetPoint" />
          </mxGeometry>
        </mxCell>
        <mxCell id="b1N7xc0EuZElvWoHNFy8-8" value="" style="rounded=0;whiteSpace=wrap;html=1;" parent="1" vertex="1">
          <mxGeometry x="10" y="250" width="30" height="60" as="geometry" />
        </mxCell>
        <mxCell id="b1N7xc0EuZElvWoHNFy8-87" style="edgeStyle=orthogonalEdgeStyle;shape=connector;rounded=0;orthogonalLoop=1;jettySize=auto;html=1;exitX=0.5;exitY=0;exitDx=0;exitDy=0;exitPerimeter=0;entryX=0;entryY=0.8;entryDx=0;entryDy=0;entryPerimeter=0;labelBackgroundColor=default;strokeColor=default;fontFamily=Helvetica;fontSize=12;fontColor=default;endArrow=none;endFill=0;" parent="1" source="b1N7xc0EuZElvWoHNFy8-9" target="b1N7xc0EuZElvWoHNFy8-81" edge="1">
          <mxGeometry relative="1" as="geometry" />
        </mxCell>
        <mxCell id="b1N7xc0EuZElvWoHNFy8-9" value="" style="shape=trapezoid;perimeter=trapezoidPerimeter;whiteSpace=wrap;html=1;fixedSize=1;rotation=90;size=10.25;points=[[0.25,1,0,0,0],[0.5,0,0,0,-9],[0.5,0,0,0,0],[0.75,1,0,0,0]];" parent="1" vertex="1">
          <mxGeometry x="626" y="338" width="50" height="19.5" as="geometry" />
        </mxCell>
        <mxCell id="b1N7xc0EuZElvWoHNFy8-68" style="edgeStyle=orthogonalEdgeStyle;shape=connector;rounded=0;orthogonalLoop=1;jettySize=auto;html=1;exitX=0.5;exitY=0;exitDx=0;exitDy=0;exitPerimeter=0;labelBackgroundColor=default;strokeColor=default;fontFamily=Helvetica;fontSize=12;fontColor=default;endArrow=none;endFill=0;" parent="1" source="b1N7xc0EuZElvWoHNFy8-10" edge="1">
          <mxGeometry relative="1" as="geometry">
            <mxPoint x="280" y="641.4544862689394" as="targetPoint" />
            <Array as="points">
              <mxPoint x="1160" y="305" />
              <mxPoint x="1160" y="641" />
            </Array>
          </mxGeometry>
        </mxCell>
        <mxCell id="b1N7xc0EuZElvWoHNFy8-117" style="edgeStyle=orthogonalEdgeStyle;shape=connector;rounded=0;orthogonalLoop=1;jettySize=auto;html=1;exitX=0.75;exitY=1;exitDx=0;exitDy=0;exitPerimeter=0;labelBackgroundColor=default;strokeColor=default;fontFamily=Helvetica;fontSize=12;fontColor=default;endArrow=none;endFill=0;entryX=1;entryY=0.5;entryDx=0;entryDy=0;entryPerimeter=0;" parent="1" source="b1N7xc0EuZElvWoHNFy8-10" target="b1N7xc0EuZElvWoHNFy8-71" edge="1">
          <mxGeometry relative="1" as="geometry">
            <mxPoint x="210" y="620" as="targetPoint" />
            <Array as="points">
              <mxPoint x="1110" y="320" />
              <mxPoint x="1110" y="600" />
              <mxPoint x="200" y="600" />
            </Array>
          </mxGeometry>
        </mxCell>
        <mxCell id="b1N7xc0EuZElvWoHNFy8-10" value="" style="shape=trapezoid;perimeter=trapezoidPerimeter;whiteSpace=wrap;html=1;fixedSize=1;rotation=90;points=[[0.25,1,0,0,0],[0.5,0,0,0,-15],[0.5,0,0,0,0],[0.5,1,0,0,0],[0.75,1,0,0,0]];size=9.75;" parent="1" vertex="1">
          <mxGeometry x="1100" y="294.75" width="60" height="20" as="geometry" />
        </mxCell>
        <mxCell id="b1N7xc0EuZElvWoHNFy8-49" style="edgeStyle=orthogonalEdgeStyle;shape=connector;rounded=0;orthogonalLoop=1;jettySize=auto;html=1;exitX=0;exitY=0.8;exitDx=0;exitDy=0;exitPerimeter=0;labelBackgroundColor=default;strokeColor=default;fontFamily=Helvetica;fontSize=12;fontColor=default;endArrow=none;endFill=0;" parent="1" source="b1N7xc0EuZElvWoHNFy8-12" edge="1">
          <mxGeometry relative="1" as="geometry">
            <mxPoint x="300.0000000000002" y="270" as="targetPoint" />
          </mxGeometry>
        </mxCell>
        <mxCell id="b1N7xc0EuZElvWoHNFy8-65" style="edgeStyle=orthogonalEdgeStyle;shape=connector;rounded=0;orthogonalLoop=1;jettySize=auto;html=1;exitX=1;exitY=0.5;exitDx=0;exitDy=0;exitPerimeter=0;labelBackgroundColor=default;strokeColor=default;fontFamily=Helvetica;fontSize=12;fontColor=default;endArrow=none;endFill=0;entryX=0.75;entryY=1;entryDx=0;entryDy=0;entryPerimeter=0;" parent="1" source="b1N7xc0EuZElvWoHNFy8-12" target="b1N7xc0EuZElvWoHNFy8-9" edge="1">
          <mxGeometry relative="1" as="geometry">
            <mxPoint x="620" y="370" as="targetPoint" />
            <Array as="points">
              <mxPoint x="630" y="530" />
              <mxPoint x="630" y="360" />
            </Array>
          </mxGeometry>
        </mxCell>
        <UserObject label="Extend" tooltip="" id="b1N7xc0EuZElvWoHNFy8-12">
          <mxCell style="shape=manualInput;whiteSpace=wrap;html=1;size=40;points=[[0,0.8,0,0,0],[0.5,0.32,0,0,0],[1,0.55,0,0,0]];" parent="1" vertex="1">
            <mxGeometry x="360" y="500" width="160" height="60" as="geometry" />
          </mxCell>
        </UserObject>
        <mxCell id="b1N7xc0EuZElvWoHNFy8-72" style="edgeStyle=orthogonalEdgeStyle;shape=connector;rounded=0;orthogonalLoop=1;jettySize=auto;html=1;exitX=0;exitY=0.2;exitDx=0;exitDy=0;exitPerimeter=0;labelBackgroundColor=default;strokeColor=default;fontFamily=Helvetica;fontSize=12;fontColor=default;endArrow=none;endFill=0;" parent="1" source="b1N7xc0EuZElvWoHNFy8-71" edge="1">
          <mxGeometry relative="1" as="geometry">
            <mxPoint x="80" y="280" as="targetPoint" />
          </mxGeometry>
        </mxCell>
        <mxCell id="b1N7xc0EuZElvWoHNFy8-74" style="edgeStyle=orthogonalEdgeStyle;shape=connector;rounded=0;orthogonalLoop=1;jettySize=auto;html=1;exitX=0;exitY=0.8;exitDx=0;exitDy=0;exitPerimeter=0;labelBackgroundColor=default;strokeColor=default;fontFamily=Helvetica;fontSize=12;fontColor=default;endArrow=none;endFill=0;" parent="1" source="b1N7xc0EuZElvWoHNFy8-71" edge="1">
          <mxGeometry relative="1" as="geometry">
            <mxPoint x="80" y="638" as="targetPoint" />
          </mxGeometry>
        </mxCell>
        <mxCell id="b1N7xc0EuZElvWoHNFy8-71" value="" style="shape=stencil(tZXdjoIwEIWfprem0LBeG9T3qDi7NNaWtF3dfXsHCsaC+IMlISRzDvN1ms5QwnJb8gpISkvC1iRNE0rxjfG5F3NbQeG8eOJG8J0E71hn9AHOYu9ahlAlGOFql20IXeE39cPyQiuFEKGVDZwbH2FcKMylfx7WLv8fRBXyj+DAtEV6laTb17GLbB5wMlO9IbarPnq98cBhxclcBxcNnEzHshyVseZm+Y4Xhx+jf9V+mDXqfWsDd4yrLaT0g/dgmxWvR3JgdPZRn+DJoN0ndwAp1A3g+qtoESwCYzmB0Ws8+jHiK3ufkIWIbEIRERC9A3lpH4XU9lFToT7SV3iZjHVkkzZo6Ub1F1AjXAA=);whiteSpace=wrap;html=1;rounded=1;pointerEvents=0;fontFamily=Helvetica;fontSize=12;fontColor=default;fillColor=default;gradientColor=none;arcSize=50;points=[[0,0.2,0,0,0],[0,0.8,0,0,0],[1,0.5,0,0,0]];" parent="1" vertex="1">
          <mxGeometry x="135" y="533" width="65" height="131" as="geometry" />
        </mxCell>
        <mxCell id="b1N7xc0EuZElvWoHNFy8-78" style="edgeStyle=orthogonalEdgeStyle;shape=connector;rounded=0;orthogonalLoop=1;jettySize=auto;html=1;exitX=0;exitY=0.8;exitDx=0;exitDy=0;exitPerimeter=0;labelBackgroundColor=default;strokeColor=default;fontFamily=Helvetica;fontSize=12;fontColor=default;endArrow=none;endFill=0;" parent="1" source="b1N7xc0EuZElvWoHNFy8-77" edge="1">
          <mxGeometry relative="1" as="geometry">
            <mxPoint x="630" y="530" as="targetPoint" />
          </mxGeometry>
        </mxCell>
        <mxCell id="b1N7xc0EuZElvWoHNFy8-79" style="edgeStyle=orthogonalEdgeStyle;shape=connector;rounded=0;orthogonalLoop=1;jettySize=auto;html=1;exitX=0;exitY=0.2;exitDx=0;exitDy=0;exitPerimeter=0;labelBackgroundColor=default;strokeColor=default;fontFamily=Helvetica;fontSize=12;fontColor=default;endArrow=none;endFill=0;" parent="1" source="b1N7xc0EuZElvWoHNFy8-77" edge="1">
          <mxGeometry relative="1" as="geometry">
            <mxPoint x="79.99999999999977" y="451.45454545454504" as="targetPoint" />
          </mxGeometry>
        </mxCell>
        <mxCell id="b1N7xc0EuZElvWoHNFy8-77" value="" style="shape=stencil(tZXdjoIwEIWfprem0LBeG9T3qDi7NNaWtF3dfXsHCsaC+IMlISRzDvN1ms5QwnJb8gpISkvC1iRNE0rxjfG5F3NbQeG8eOJG8J0E71hn9AHOYu9ahlAlGOFql20IXeE39cPyQiuFEKGVDZwbH2FcKMylfx7WLv8fRBXyj+DAtEV6laTb17GLbB5wMlO9IbarPnq98cBhxclcBxcNnEzHshyVseZm+Y4Xhx+jf9V+mDXqfWsDd4yrLaT0g/dgmxWvR3JgdPZRn+DJoN0ndwAp1A3g+qtoESwCYzmB0Ws8+jHiK3ufkIWIbEIRERC9A3lpH4XU9lFToT7SV3iZjHVkkzZo6Ub1F1AjXAA=);whiteSpace=wrap;html=1;rounded=1;pointerEvents=0;fontFamily=Helvetica;fontSize=12;fontColor=default;fillColor=default;gradientColor=none;arcSize=50;points=[[0,0.2,0,0,0],[0,0.8,0,0,0],[1,0.5,0,0,0]];" parent="1" vertex="1">
          <mxGeometry x="718" y="426" width="65" height="131" as="geometry" />
        </mxCell>
        <mxCell id="b1N7xc0EuZElvWoHNFy8-83" style="edgeStyle=orthogonalEdgeStyle;shape=connector;rounded=0;orthogonalLoop=1;jettySize=auto;html=1;exitX=1;exitY=0.5;exitDx=0;exitDy=0;exitPerimeter=0;entryX=0;entryY=0.4;entryDx=0;entryDy=0;entryPerimeter=0;labelBackgroundColor=default;strokeColor=default;fontFamily=Helvetica;fontSize=12;fontColor=default;endArrow=none;endFill=0;" parent="1" source="b1N7xc0EuZElvWoHNFy8-81" target="b1N7xc0EuZElvWoHNFy8-4" edge="1">
          <mxGeometry relative="1" as="geometry" />
        </mxCell>
        <mxCell id="b1N7xc0EuZElvWoHNFy8-81" value="" style="shape=stencil(tZXdjoIwEIWfprem0LBeG9T3qDi7NNaWtF3dfXsHCsaC+IMlISRzDvN1ms5QwnJb8gpISkvC1iRNE0rxjfG5F3NbQeG8eOJG8J0E71hn9AHOYu9ahlAlGOFql20IXeE39cPyQiuFEKGVDZwbH2FcKMylfx7WLv8fRBXyj+DAtEV6laTb17GLbB5wMlO9IbarPnq98cBhxclcBxcNnEzHshyVseZm+Y4Xhx+jf9V+mDXqfWsDd4yrLaT0g/dgmxWvR3JgdPZRn+DJoN0ndwAp1A3g+qtoESwCYzmB0Ws8+jHiK3ufkIWIbEIRERC9A3lpH4XU9lFToT7SV3iZjHVkkzZo6Ub1F1AjXAA=);whiteSpace=wrap;html=1;rounded=1;pointerEvents=0;fontFamily=Helvetica;fontSize=12;fontColor=default;fillColor=default;gradientColor=none;arcSize=22;points=[[0,0.2,0,0,0],[0,0.8,0,0,0],[0.53,0.15,0,0,0],[1,0.33,0,0,0],[1,0.5,0,0,0]];" parent="1" vertex="1">
          <mxGeometry x="720" y="233.62" width="60" height="142.25" as="geometry" />
        </mxCell>
        <mxCell id="b1N7xc0EuZElvWoHNFy8-100" value="clk" style="text;html=1;align=center;verticalAlign=middle;resizable=0;points=[];autosize=1;strokeColor=none;fillColor=none;fontSize=12;fontFamily=Helvetica;fontColor=default;" parent="1" vertex="1">
          <mxGeometry x="360" y="198" width="40" height="30" as="geometry" />
        </mxCell>
        <mxCell id="b1N7xc0EuZElvWoHNFy8-104" value="clk&lt;br&gt;" style="text;html=1;align=center;verticalAlign=middle;resizable=0;points=[];autosize=1;strokeColor=none;fillColor=none;fontSize=12;fontFamily=Helvetica;fontColor=default;" parent="1" vertex="1">
          <mxGeometry x="5" y="203.62" width="40" height="30" as="geometry" />
        </mxCell>
        <mxCell id="b1N7xc0EuZElvWoHNFy8-105" value="4" style="text;html=1;align=center;verticalAlign=middle;resizable=0;points=[];autosize=1;strokeColor=none;fillColor=none;fontSize=12;fontFamily=Helvetica;fontColor=default;" parent="1" vertex="1">
          <mxGeometry x="58" y="624" width="30" height="30" as="geometry" />
        </mxCell>
        <mxCell id="b1N7xc0EuZElvWoHNFy8-106" value="clk" style="text;html=1;align=center;verticalAlign=middle;resizable=0;points=[];autosize=1;strokeColor=none;fillColor=none;fontSize=12;fontFamily=Helvetica;fontColor=default;" parent="1" vertex="1">
          <mxGeometry x="930" y="198" width="40" height="30" as="geometry" />
        </mxCell>
        <mxCell id="b1N7xc0EuZElvWoHNFy8-107" value="0" style="text;html=1;align=center;verticalAlign=middle;resizable=0;points=[];autosize=1;strokeColor=none;fillColor=none;fontSize=12;fontFamily=Helvetica;fontColor=default;" parent="1" vertex="1">
          <mxGeometry x="-75" y="250" width="30" height="30" as="geometry" />
        </mxCell>
        <mxCell id="b1N7xc0EuZElvWoHNFy8-108" value="1" style="text;html=1;align=center;verticalAlign=middle;resizable=0;points=[];autosize=1;strokeColor=none;fillColor=none;fontSize=12;fontFamily=Helvetica;fontColor=default;" parent="1" vertex="1">
          <mxGeometry x="-75" y="280" width="30" height="30" as="geometry" />
        </mxCell>
        <mxCell id="b1N7xc0EuZElvWoHNFy8-109" value="PCNext" style="text;html=1;align=center;verticalAlign=middle;resizable=0;points=[];autosize=1;strokeColor=none;fillColor=none;fontSize=12;fontFamily=Helvetica;fontColor=default;" parent="1" vertex="1">
          <mxGeometry x="-49" y="257" width="60" height="30" as="geometry" />
        </mxCell>
        <mxCell id="b1N7xc0EuZElvWoHNFy8-110" value="" style="triangle;whiteSpace=wrap;html=1;rounded=0;pointerEvents=0;strokeColor=default;fontFamily=Helvetica;fontSize=12;fontColor=default;fillColor=none;gradientColor=none;rotation=90;" parent="1" vertex="1">
          <mxGeometry x="19.5" y="245.25" width="11" height="20" as="geometry" />
        </mxCell>
        <mxCell id="b1N7xc0EuZElvWoHNFy8-111" value="PC" style="text;html=1;align=center;verticalAlign=middle;resizable=0;points=[];autosize=1;strokeColor=none;fillColor=none;fontSize=12;fontFamily=Helvetica;fontColor=default;" parent="1" vertex="1">
          <mxGeometry x="30.5" y="257" width="40" height="30" as="geometry" />
        </mxCell>
        <mxCell id="b1N7xc0EuZElvWoHNFy8-112" value="A" style="text;html=1;align=center;verticalAlign=middle;resizable=0;points=[];autosize=1;strokeColor=none;fillColor=none;fontSize=12;fontFamily=Helvetica;fontColor=default;" parent="1" vertex="1">
          <mxGeometry x="120" y="265.25" width="30" height="30" as="geometry" />
        </mxCell>
        <mxCell id="b1N7xc0EuZElvWoHNFy8-113" value="RD" style="text;html=1;align=center;verticalAlign=middle;resizable=0;points=[];autosize=1;strokeColor=none;fillColor=none;fontSize=12;fontFamily=Helvetica;fontColor=default;" parent="1" vertex="1">
          <mxGeometry x="210" y="265.25" width="40" height="30" as="geometry" />
        </mxCell>
        <mxCell id="b1N7xc0EuZElvWoHNFy8-114" value="Instr" style="text;html=1;align=center;verticalAlign=middle;resizable=0;points=[];autosize=1;strokeColor=none;fillColor=none;fontSize=12;fontFamily=Helvetica;fontColor=default;" parent="1" vertex="1">
          <mxGeometry x="230" y="257" width="50" height="30" as="geometry" />
        </mxCell>
        <mxCell id="b1N7xc0EuZElvWoHNFy8-115" value="&lt;font style=&quot;font-size: 16px;&quot;&gt;+&lt;/font&gt;" style="text;html=1;align=center;verticalAlign=middle;resizable=0;points=[];autosize=1;strokeColor=none;fillColor=none;fontSize=12;fontFamily=Helvetica;fontColor=default;" parent="1" vertex="1">
          <mxGeometry x="170" y="583.5" width="30" height="30" as="geometry" />
        </mxCell>
        <mxCell id="b1N7xc0EuZElvWoHNFy8-116" value="PCPlus4" style="text;html=1;align=center;verticalAlign=middle;resizable=0;points=[];autosize=1;strokeColor=none;fillColor=none;fontSize=12;fontFamily=Helvetica;fontColor=default;" parent="1" vertex="1">
          <mxGeometry x="200" y="576" width="70" height="30" as="geometry" />
        </mxCell>
        <mxCell id="b1N7xc0EuZElvWoHNFy8-118" value="ImmExt" style="text;html=1;align=center;verticalAlign=middle;resizable=0;points=[];autosize=1;strokeColor=none;fillColor=none;fontSize=12;fontFamily=Helvetica;fontColor=default;" parent="1" vertex="1">
          <mxGeometry x="514" y="506" width="60" height="30" as="geometry" />
        </mxCell>
        <mxCell id="b1N7xc0EuZElvWoHNFy8-119" value="PCTarget" style="text;html=1;align=center;verticalAlign=middle;resizable=0;points=[];autosize=1;strokeColor=none;fillColor=none;fontSize=12;fontFamily=Helvetica;fontColor=default;" parent="1" vertex="1">
          <mxGeometry x="777" y="469" width="70" height="30" as="geometry" />
        </mxCell>
        <mxCell id="b1N7xc0EuZElvWoHNFy8-120" value="Result" style="text;html=1;align=center;verticalAlign=middle;resizable=0;points=[];autosize=1;strokeColor=none;fillColor=none;fontSize=12;fontFamily=Helvetica;fontColor=default;" parent="1" vertex="1">
          <mxGeometry x="1108" y="617" width="60" height="30" as="geometry" />
        </mxCell>
        <mxCell id="b1N7xc0EuZElvWoHNFy8-121" value="ReadData" style="text;html=1;align=center;verticalAlign=middle;resizable=0;points=[];autosize=1;strokeColor=none;fillColor=none;fontSize=12;fontFamily=Helvetica;fontColor=default;" parent="1" vertex="1">
          <mxGeometry x="1028" y="280" width="80" height="30" as="geometry" />
        </mxCell>
        <mxCell id="b1N7xc0EuZElvWoHNFy8-122" value="&lt;font style=&quot;font-size: 7px;&quot;&gt;00&lt;/font&gt;" style="text;html=1;align=center;verticalAlign=middle;resizable=0;points=[];autosize=1;strokeColor=none;fillColor=none;fontSize=12;fontFamily=Helvetica;fontColor=default;" parent="1" vertex="1">
          <mxGeometry x="1113" y="274" width="30" height="30" as="geometry" />
        </mxCell>
        <mxCell id="b1N7xc0EuZElvWoHNFy8-123" value="&lt;font style=&quot;font-size: 7px;&quot;&gt;01&lt;/font&gt;" style="text;html=1;align=center;verticalAlign=middle;resizable=0;points=[];autosize=1;strokeColor=none;fillColor=none;fontSize=12;fontFamily=Helvetica;fontColor=default;" parent="1" vertex="1">
          <mxGeometry x="1114" y="289" width="30" height="30" as="geometry" />
        </mxCell>
        <mxCell id="b1N7xc0EuZElvWoHNFy8-124" value="&lt;font style=&quot;font-size: 7px;&quot;&gt;10&lt;/font&gt;" style="text;html=1;align=center;verticalAlign=middle;resizable=0;points=[];autosize=1;strokeColor=none;fillColor=none;fontSize=12;fontFamily=Helvetica;fontColor=default;" parent="1" vertex="1">
          <mxGeometry x="1113" y="304" width="30" height="30" as="geometry" />
        </mxCell>
        <mxCell id="b1N7xc0EuZElvWoHNFy8-125" value="" style="triangle;whiteSpace=wrap;html=1;rounded=0;pointerEvents=0;strokeColor=default;fontFamily=Helvetica;fontSize=12;fontColor=default;fillColor=none;gradientColor=none;rotation=90;" parent="1" vertex="1">
          <mxGeometry x="940" y="237" width="20" height="26" as="geometry" />
        </mxCell>
        <mxCell id="b1N7xc0EuZElvWoHNFy8-126" value="WE" style="text;html=1;align=center;verticalAlign=middle;resizable=0;points=[];autosize=1;strokeColor=none;fillColor=none;fontSize=12;fontFamily=Helvetica;fontColor=default;" parent="1" vertex="1">
          <mxGeometry x="990" y="237" width="40" height="30" as="geometry" />
        </mxCell>
        <mxCell id="b1N7xc0EuZElvWoHNFy8-127" value="A" style="text;html=1;align=center;verticalAlign=middle;resizable=0;points=[];autosize=1;strokeColor=none;fillColor=none;fontSize=12;fontFamily=Helvetica;fontColor=default;" parent="1" vertex="1">
          <mxGeometry x="914" y="290" width="30" height="30" as="geometry" />
        </mxCell>
        <mxCell id="b1N7xc0EuZElvWoHNFy8-128" value="RD" style="text;html=1;align=center;verticalAlign=middle;resizable=0;points=[];autosize=1;strokeColor=none;fillColor=none;fontSize=12;fontFamily=Helvetica;fontColor=default;" parent="1" vertex="1">
          <mxGeometry x="1009" y="289" width="40" height="30" as="geometry" />
        </mxCell>
        <mxCell id="b1N7xc0EuZElvWoHNFy8-129" value="WD" style="text;html=1;align=center;verticalAlign=middle;resizable=0;points=[];autosize=1;strokeColor=none;fillColor=none;fontSize=12;fontFamily=Helvetica;fontColor=default;" parent="1" vertex="1">
          <mxGeometry x="914" y="370" width="40" height="30" as="geometry" />
        </mxCell>
        <mxCell id="b1N7xc0EuZElvWoHNFy8-130" value="Zero, Neg" style="text;html=1;align=center;verticalAlign=middle;resizable=0;points=[];autosize=1;strokeColor=none;fillColor=none;fontSize=12;fontFamily=Helvetica;fontColor=default;fontStyle=1" parent="1" vertex="1">
          <mxGeometry x="752" y="175" width="75" height="30" as="geometry" />
        </mxCell>
        <mxCell id="b1N7xc0EuZElvWoHNFy8-131" value="ALUResult" style="text;html=1;align=center;verticalAlign=middle;resizable=0;points=[];autosize=1;strokeColor=none;fillColor=none;fontSize=12;fontFamily=Helvetica;fontColor=default;" parent="1" vertex="1">
          <mxGeometry x="770" y="284.75" width="80" height="30" as="geometry" />
        </mxCell>
        <mxCell id="b1N7xc0EuZElvWoHNFy8-133" value="WriteData" style="text;html=1;align=center;verticalAlign=middle;resizable=0;points=[];autosize=1;strokeColor=none;fillColor=none;fontSize=12;fontFamily=Helvetica;fontColor=default;" parent="1" vertex="1">
          <mxGeometry x="767" y="357.5" width="80" height="30" as="geometry" />
        </mxCell>
        <mxCell id="b1N7xc0EuZElvWoHNFy8-134" value="&lt;font style=&quot;font-size: 9px;&quot;&gt;0&lt;/font&gt;" style="text;html=1;align=center;verticalAlign=middle;resizable=0;points=[];autosize=1;strokeColor=none;fillColor=none;fontSize=12;fontFamily=Helvetica;fontColor=default;" parent="1" vertex="1">
          <mxGeometry x="633" y="320" width="30" height="30" as="geometry" />
        </mxCell>
        <mxCell id="b1N7xc0EuZElvWoHNFy8-135" value="&lt;font style=&quot;font-size: 9px;&quot;&gt;1&lt;/font&gt;" style="text;html=1;align=center;verticalAlign=middle;resizable=0;points=[];autosize=1;strokeColor=none;fillColor=none;fontSize=12;fontFamily=Helvetica;fontColor=default;" parent="1" vertex="1">
          <mxGeometry x="634" y="345" width="30" height="30" as="geometry" />
        </mxCell>
        <mxCell id="b1N7xc0EuZElvWoHNFy8-136" value="&lt;font style=&quot;font-size: 16px;&quot;&gt;+&lt;/font&gt;" style="text;html=1;align=center;verticalAlign=middle;resizable=0;points=[];autosize=1;strokeColor=none;fillColor=none;fontSize=12;fontFamily=Helvetica;fontColor=default;" parent="1" vertex="1">
          <mxGeometry x="750" y="476.5" width="30" height="30" as="geometry" />
        </mxCell>
        <mxCell id="b1N7xc0EuZElvWoHNFy8-137" value="ALU" style="text;html=1;align=center;verticalAlign=middle;resizable=0;points=[];autosize=1;strokeColor=none;fillColor=none;fontSize=12;fontFamily=Helvetica;fontColor=default;rotation=-90;" parent="1" vertex="1">
          <mxGeometry x="740" y="289" width="50" height="30" as="geometry" />
        </mxCell>
        <mxCell id="b1N7xc0EuZElvWoHNFy8-138" value="SrcA" style="text;html=1;align=center;verticalAlign=middle;resizable=0;points=[];autosize=1;strokeColor=none;fillColor=none;fontSize=12;fontFamily=Helvetica;fontColor=default;" parent="1" vertex="1">
          <mxGeometry x="676" y="240" width="50" height="30" as="geometry" />
        </mxCell>
        <mxCell id="b1N7xc0EuZElvWoHNFy8-140" value="SrcB" style="text;html=1;align=center;verticalAlign=middle;resizable=0;points=[];autosize=1;strokeColor=none;fillColor=none;fontSize=12;fontFamily=Helvetica;fontColor=default;" parent="1" vertex="1">
          <mxGeometry x="676" y="327.5" width="50" height="30" as="geometry" />
        </mxCell>
        <mxCell id="b1N7xc0EuZElvWoHNFy8-141" value="RD1" style="text;html=1;align=center;verticalAlign=middle;resizable=0;points=[];autosize=1;strokeColor=none;fillColor=none;fontSize=12;fontFamily=Helvetica;fontColor=default;" parent="1" vertex="1">
          <mxGeometry x="480" y="250" width="50" height="30" as="geometry" />
        </mxCell>
        <mxCell id="b1N7xc0EuZElvWoHNFy8-142" value="RD2" style="text;html=1;align=center;verticalAlign=middle;resizable=0;points=[];autosize=1;strokeColor=none;fillColor=none;fontSize=12;fontFamily=Helvetica;fontColor=default;" parent="1" vertex="1">
          <mxGeometry x="480" y="320" width="50" height="30" as="geometry" />
        </mxCell>
        <mxCell id="b1N7xc0EuZElvWoHNFy8-143" value="A1" style="text;html=1;align=center;verticalAlign=middle;resizable=0;points=[];autosize=1;strokeColor=none;fillColor=none;fontSize=12;fontFamily=Helvetica;fontColor=default;" parent="1" vertex="1">
          <mxGeometry x="350" y="254.75" width="40" height="30" as="geometry" />
        </mxCell>
        <mxCell id="b1N7xc0EuZElvWoHNFy8-144" value="A2" style="text;html=1;align=center;verticalAlign=middle;resizable=0;points=[];autosize=1;strokeColor=none;fillColor=none;fontSize=12;fontFamily=Helvetica;fontColor=default;" parent="1" vertex="1">
          <mxGeometry x="350" y="327.5" width="40" height="30" as="geometry" />
        </mxCell>
        <mxCell id="b1N7xc0EuZElvWoHNFy8-145" value="A3" style="text;html=1;align=center;verticalAlign=middle;resizable=0;points=[];autosize=1;strokeColor=none;fillColor=none;fontSize=12;fontFamily=Helvetica;fontColor=default;" parent="1" vertex="1">
          <mxGeometry x="350" y="345.87" width="40" height="30" as="geometry" />
        </mxCell>
        <mxCell id="b1N7xc0EuZElvWoHNFy8-146" value="WD3" style="text;html=1;align=center;verticalAlign=middle;resizable=0;points=[];autosize=1;strokeColor=none;fillColor=none;fontSize=12;fontFamily=Helvetica;fontColor=default;" parent="1" vertex="1">
          <mxGeometry x="350" y="365" width="50" height="30" as="geometry" />
        </mxCell>
        <mxCell id="b1N7xc0EuZElvWoHNFy8-147" value="" style="triangle;whiteSpace=wrap;html=1;rounded=0;pointerEvents=0;strokeColor=default;fontFamily=Helvetica;fontSize=12;fontColor=default;fillColor=none;gradientColor=none;rotation=90;" parent="1" vertex="1">
          <mxGeometry x="374.5" y="237.5" width="17" height="22" as="geometry" />
        </mxCell>
        <mxCell id="b1N7xc0EuZElvWoHNFy8-148" value="Zero, Neg" style="text;html=1;align=center;verticalAlign=middle;resizable=0;points=[];autosize=1;strokeColor=none;fillColor=none;fontSize=12;fontFamily=Helvetica;fontColor=default;fontStyle=1" parent="1" vertex="1">
          <mxGeometry x="353" y="86" width="75" height="30" as="geometry" />
        </mxCell>
        <mxCell id="b1N7xc0EuZElvWoHNFy8-149" value="op" style="text;html=1;align=center;verticalAlign=middle;resizable=0;points=[];autosize=1;strokeColor=none;fillColor=none;fontSize=12;fontFamily=Helvetica;fontColor=default;" parent="1" vertex="1">
          <mxGeometry x="350" y="25" width="40" height="30" as="geometry" />
        </mxCell>
        <mxCell id="b1N7xc0EuZElvWoHNFy8-150" value="funct3" style="text;html=1;align=center;verticalAlign=middle;resizable=0;points=[];autosize=1;strokeColor=none;fillColor=none;fontSize=12;fontFamily=Helvetica;fontColor=default;" parent="1" vertex="1">
          <mxGeometry x="348" y="45" width="60" height="30" as="geometry" />
        </mxCell>
        <mxCell id="b1N7xc0EuZElvWoHNFy8-151" value="funct7" style="text;html=1;align=center;verticalAlign=middle;resizable=0;points=[];autosize=1;strokeColor=none;fillColor=none;fontSize=12;fontFamily=Helvetica;fontColor=default;" parent="1" vertex="1">
          <mxGeometry x="349" y="63" width="60" height="30" as="geometry" />
        </mxCell>
        <mxCell id="b1N7xc0EuZElvWoHNFy8-152" value="PCSrc" style="text;html=1;align=center;verticalAlign=middle;resizable=0;points=[];autosize=1;strokeColor=none;fillColor=none;fontSize=12;fontFamily=Helvetica;fontColor=#004CFF;" parent="1" vertex="1">
          <mxGeometry x="430" y="-40" width="60" height="30" as="geometry" />
        </mxCell>
        <mxCell id="b1N7xc0EuZElvWoHNFy8-153" value="ResultSrc" style="text;html=1;align=center;verticalAlign=middle;resizable=0;points=[];autosize=1;strokeColor=none;fillColor=none;fontSize=12;fontFamily=Helvetica;fontColor=#004CFF;" parent="1" vertex="1">
          <mxGeometry x="430" y="-20" width="80" height="30" as="geometry" />
        </mxCell>
        <mxCell id="b1N7xc0EuZElvWoHNFy8-154" value="MemWrite" style="text;html=1;align=center;verticalAlign=middle;resizable=0;points=[];autosize=1;strokeColor=none;fillColor=none;fontSize=12;fontFamily=Helvetica;fontColor=#004CFF;" parent="1" vertex="1">
          <mxGeometry x="430" width="80" height="30" as="geometry" />
        </mxCell>
        <mxCell id="b1N7xc0EuZElvWoHNFy8-155" value="ALUControl" style="text;html=1;align=center;verticalAlign=middle;resizable=0;points=[];autosize=1;strokeColor=none;fillColor=none;fontSize=12;fontFamily=Helvetica;fontColor=#004CFF;" parent="1" vertex="1">
          <mxGeometry x="428" y="19" width="90" height="30" as="geometry" />
        </mxCell>
        <mxCell id="b1N7xc0EuZElvWoHNFy8-156" value="ALUSrc" style="text;html=1;align=center;verticalAlign=middle;resizable=0;points=[];autosize=1;strokeColor=none;fillColor=none;fontSize=12;fontFamily=Helvetica;fontColor=#004CFF;" parent="1" vertex="1">
          <mxGeometry x="433" y="38" width="60" height="30" as="geometry" />
        </mxCell>
        <mxCell id="b1N7xc0EuZElvWoHNFy8-157" value="ImmSrc" style="text;html=1;align=center;verticalAlign=middle;resizable=0;points=[];autosize=1;strokeColor=none;fillColor=none;fontSize=12;fontFamily=Helvetica;fontColor=#004CFF;" parent="1" vertex="1">
          <mxGeometry x="433" y="56" width="60" height="30" as="geometry" />
        </mxCell>
        <mxCell id="b1N7xc0EuZElvWoHNFy8-158" value="RegWrite" style="text;html=1;align=center;verticalAlign=middle;resizable=0;points=[];autosize=1;strokeColor=none;fillColor=none;fontSize=12;fontFamily=Helvetica;fontColor=#004CFF;" parent="1" vertex="1">
          <mxGeometry x="433" y="79" width="70" height="30" as="geometry" />
        </mxCell>
        <mxCell id="b1N7xc0EuZElvWoHNFy8-161" value="" style="ellipse;whiteSpace=wrap;html=1;aspect=fixed;rounded=1;pointerEvents=0;strokeColor=default;fontFamily=Helvetica;fontSize=12;fontColor=default;fillColor=none;gradientColor=none;textOpacity=0;opacity=0;" parent="1" vertex="1">
          <mxGeometry x="-148" y="-149" width="10" height="10" as="geometry" />
        </mxCell>
        <mxCell id="b1N7xc0EuZElvWoHNFy8-162" value="" style="ellipse;whiteSpace=wrap;html=1;aspect=fixed;rounded=1;pointerEvents=0;strokeColor=default;fontFamily=Helvetica;fontSize=12;fontColor=default;fillColor=none;gradientColor=none;textOpacity=0;opacity=0;" parent="1" vertex="1">
          <mxGeometry x="1189" y="744" width="10" height="10" as="geometry" />
        </mxCell>
        <mxCell id="cgvAtYPe-MxuXK0tbf8f-1" value="Text" style="text;html=1;strokeColor=none;fillColor=none;align=center;verticalAlign=middle;whiteSpace=wrap;rounded=0;" parent="1" vertex="1">
          <mxGeometry x="566" y="469" width="60" height="30" as="geometry" />
        </mxCell>
        <mxCell id="m4mT3eGx3rU_dHDhmZO9-1" value="blt" style="text;html=1;strokeColor=none;fillColor=none;align=center;verticalAlign=middle;whiteSpace=wrap;rounded=0;fontSize=40;" parent="1" vertex="1">
          <mxGeometry x="530" y="-105" width="60" height="30" as="geometry" />
        </mxCell>
        <mxCell id="m4mT3eGx3rU_dHDhmZO9-11" value="Control Unit" style="text;html=1;strokeColor=none;fillColor=none;align=center;verticalAlign=middle;whiteSpace=wrap;rounded=0;fontSize=17;fontColor=#004CFF;" parent="1" vertex="1">
          <mxGeometry x="955" y="724" width="105" height="30" as="geometry" />
        </mxCell>
        <mxCell id="m4mT3eGx3rU_dHDhmZO9-13" value="" style="endArrow=none;html=1;rounded=0;fontStyle=1;strokeWidth=2;" parent="1" edge="1">
          <mxGeometry width="50" height="50" relative="1" as="geometry">
            <mxPoint x="919" y="815" as="sourcePoint" />
            <mxPoint x="974" y="815" as="targetPoint" />
          </mxGeometry>
        </mxCell>
        <mxCell id="m4mT3eGx3rU_dHDhmZO9-14" value="Zero" style="text;html=1;strokeColor=none;fillColor=none;align=center;verticalAlign=middle;whiteSpace=wrap;rounded=0;fontStyle=0;strokeWidth=2;" parent="1" vertex="1">
          <mxGeometry x="870" y="800" width="60" height="30" as="geometry" />
        </mxCell>
        <mxCell id="m4mT3eGx3rU_dHDhmZO9-15" value="Neg" style="text;html=1;strokeColor=none;fillColor=none;align=center;verticalAlign=middle;whiteSpace=wrap;rounded=0;fontStyle=1;strokeWidth=2;" parent="1" vertex="1">
          <mxGeometry x="870" y="830" width="60" height="30" as="geometry" />
        </mxCell>
        <mxCell id="m4mT3eGx3rU_dHDhmZO9-16" value="" style="endArrow=none;html=1;rounded=0;fontStyle=1;strokeWidth=2;" parent="1" edge="1">
          <mxGeometry width="50" height="50" relative="1" as="geometry">
            <mxPoint x="919" y="844.76" as="sourcePoint" />
            <mxPoint x="974" y="844.76" as="targetPoint" />
          </mxGeometry>
        </mxCell>
        <mxCell id="m4mT3eGx3rU_dHDhmZO9-17" value="" style="shape=trapezoid;perimeter=trapezoidPerimeter;whiteSpace=wrap;html=1;fixedSize=1;rotation=90;size=10.25;points=[[0.25,1,0,0,0],[0.5,0,0,0,-9],[0.5,0,0,0,0],[0.75,1,0,0,0]];fontStyle=1;strokeWidth=2;" parent="1" vertex="1">
          <mxGeometry x="959" y="819" width="50" height="19.5" as="geometry" />
        </mxCell>
        <mxCell id="m4mT3eGx3rU_dHDhmZO9-18" value="&lt;font style=&quot;font-size: 9px;&quot;&gt;0&lt;/font&gt;" style="text;html=1;align=center;verticalAlign=middle;resizable=0;points=[];autosize=1;strokeColor=none;fillColor=none;fontSize=12;fontFamily=Helvetica;fontColor=default;fontStyle=1;strokeWidth=2;" parent="1" vertex="1">
          <mxGeometry x="971" y="800" width="25" height="30" as="geometry" />
        </mxCell>
        <mxCell id="m4mT3eGx3rU_dHDhmZO9-19" value="&lt;font style=&quot;font-size: 9px;&quot;&gt;1&lt;/font&gt;" style="text;html=1;align=center;verticalAlign=middle;resizable=0;points=[];autosize=1;strokeColor=none;fillColor=none;fontSize=12;fontFamily=Helvetica;fontColor=default;fontStyle=1;strokeWidth=2;" parent="1" vertex="1">
          <mxGeometry x="971" y="825" width="25" height="30" as="geometry" />
        </mxCell>
        <mxCell id="m4mT3eGx3rU_dHDhmZO9-20" value="" style="endArrow=none;html=1;rounded=0;entryX=0.046;entryY=0.498;entryDx=0;entryDy=0;entryPerimeter=0;fontStyle=1;strokeWidth=2;" parent="1" edge="1">
          <mxGeometry width="50" height="50" relative="1" as="geometry">
            <mxPoint x="984" y="775" as="sourcePoint" />
            <mxPoint x="984.0390000000002" y="809.0499999999997" as="targetPoint" />
          </mxGeometry>
        </mxCell>
        <mxCell id="m4mT3eGx3rU_dHDhmZO9-21" value="funct3[2]" style="text;html=1;strokeColor=none;fillColor=none;align=center;verticalAlign=middle;whiteSpace=wrap;rounded=0;fontStyle=1;strokeWidth=2;" parent="1" vertex="1">
          <mxGeometry x="955" y="750" width="60" height="30" as="geometry" />
        </mxCell>
        <mxCell id="m4mT3eGx3rU_dHDhmZO9-22" value="" style="endArrow=none;html=1;rounded=0;entryX=0.5;entryY=0;entryDx=0;entryDy=0;entryPerimeter=0;" parent="1" target="m4mT3eGx3rU_dHDhmZO9-17" edge="1">
          <mxGeometry width="50" height="50" relative="1" as="geometry">
            <mxPoint x="1050" y="829" as="sourcePoint" />
            <mxPoint x="1015" y="825" as="targetPoint" />
          </mxGeometry>
        </mxCell>
        <mxCell id="m4mT3eGx3rU_dHDhmZO9-23" value="" style="shape=or;whiteSpace=wrap;html=1;" parent="1" vertex="1">
          <mxGeometry x="1050" y="820" width="19" height="25" as="geometry" />
        </mxCell>
        <mxCell id="m4mT3eGx3rU_dHDhmZO9-24" value="" style="endArrow=none;html=1;rounded=0;exitX=-0.01;exitY=0.784;exitDx=0;exitDy=0;exitPerimeter=0;" parent="1" source="m4mT3eGx3rU_dHDhmZO9-23" edge="1">
          <mxGeometry width="50" height="50" relative="1" as="geometry">
            <mxPoint x="1055" y="834" as="sourcePoint" />
            <mxPoint x="1020" y="840" as="targetPoint" />
          </mxGeometry>
        </mxCell>
        <mxCell id="m4mT3eGx3rU_dHDhmZO9-25" value="Branch" style="text;html=1;strokeColor=none;fillColor=none;align=center;verticalAlign=middle;whiteSpace=wrap;rounded=0;" parent="1" vertex="1">
          <mxGeometry x="989" y="855" width="60" height="30" as="geometry" />
        </mxCell>
        <mxCell id="m4mT3eGx3rU_dHDhmZO9-26" value="" style="endArrow=none;html=1;rounded=0;entryX=0.517;entryY=0.007;entryDx=0;entryDy=0;entryPerimeter=0;" parent="1" target="m4mT3eGx3rU_dHDhmZO9-25" edge="1">
          <mxGeometry width="50" height="50" relative="1" as="geometry">
            <mxPoint x="1020" y="840" as="sourcePoint" />
            <mxPoint x="1004" y="845" as="targetPoint" />
          </mxGeometry>
        </mxCell>
        <mxCell id="m4mT3eGx3rU_dHDhmZO9-27" value="" style="endArrow=none;html=1;rounded=0;exitX=1;exitY=0.5;exitDx=0;exitDy=0;exitPerimeter=0;entryX=0.175;entryY=0.25;entryDx=0;entryDy=0;entryPerimeter=0;" parent="1" source="m4mT3eGx3rU_dHDhmZO9-23" target="EItrjEuwf7lBzgXN9Wpp-1" edge="1">
          <mxGeometry width="50" height="50" relative="1" as="geometry">
            <mxPoint x="1090" y="838.5" as="sourcePoint" />
            <mxPoint x="1084" y="832.5" as="targetPoint" />
          </mxGeometry>
        </mxCell>
        <mxCell id="m4mT3eGx3rU_dHDhmZO9-30" value="Jump" style="text;html=1;strokeColor=none;fillColor=none;align=center;verticalAlign=middle;whiteSpace=wrap;rounded=0;" parent="1" vertex="1">
          <mxGeometry x="1049" y="858" width="60" height="30" as="geometry" />
        </mxCell>
        <mxCell id="m4mT3eGx3rU_dHDhmZO9-31" value="PCSrc" style="text;html=1;strokeColor=none;fillColor=none;align=center;verticalAlign=middle;whiteSpace=wrap;rounded=0;" parent="1" vertex="1">
          <mxGeometry x="1135" y="825" width="60" height="30" as="geometry" />
        </mxCell>
        <mxCell id="m4mT3eGx3rU_dHDhmZO9-32" value="..." style="text;html=1;strokeColor=none;fillColor=none;align=center;verticalAlign=middle;whiteSpace=wrap;rounded=0;fontSize=17;fontColor=#004CFF;" parent="1" vertex="1">
          <mxGeometry x="954" y="905" width="105" height="30" as="geometry" />
        </mxCell>
        <mxCell id="EItrjEuwf7lBzgXN9Wpp-1" value="" style="shape=xor;whiteSpace=wrap;html=1;" vertex="1" parent="1">
          <mxGeometry x="1105" y="825" width="25" height="29" as="geometry" />
        </mxCell>
        <mxCell id="EItrjEuwf7lBzgXN9Wpp-2" value="" style="endArrow=none;html=1;rounded=0;exitX=0.175;exitY=0.75;exitDx=0;exitDy=0;exitPerimeter=0;" edge="1" parent="1" source="EItrjEuwf7lBzgXN9Wpp-1">
          <mxGeometry width="50" height="50" relative="1" as="geometry">
            <mxPoint x="840" y="665" as="sourcePoint" />
            <mxPoint x="1080" y="847" as="targetPoint" />
          </mxGeometry>
        </mxCell>
        <mxCell id="EItrjEuwf7lBzgXN9Wpp-4" value="" style="endArrow=none;html=1;rounded=0;" edge="1" parent="1">
          <mxGeometry width="50" height="50" relative="1" as="geometry">
            <mxPoint x="1080" y="846" as="sourcePoint" />
            <mxPoint x="1080" y="864" as="targetPoint" />
          </mxGeometry>
        </mxCell>
        <mxCell id="EItrjEuwf7lBzgXN9Wpp-5" value="" style="rounded=1;whiteSpace=wrap;html=1;fillColor=none;strokeColor=#004CFF;" vertex="1" parent="1">
          <mxGeometry x="847" y="715" width="355" height="220" as="geometry" />
        </mxCell>
      </root>
    </mxGraphModel>
  </diagram>
</mxfile>
